<?xml version="1.0" standalone="no"?><!DOCTYPE svg PUBLIC "-//W3C//DTD SVG 1.1//EN" "http://www.w3.org/Graphics/SVG/1.1/DTD/svg11.dtd"><svg t="1575949278864" class="icon" viewBox="0 0 1024 1024" version="1.1" xmlns="http://www.w3.org/2000/svg" p-id="44011" xmlns:xlink="http://www.w3.org/1999/xlink" width="200" height="200"><defs><style type="text/css"></style></defs><path d="M305.4 820.2h-239c-0.6 0-1-0.4-1-1V493.1c0-66.6 53.9-120.5 120.5-120.5s120.5 53.9 120.5 120.5v326.1c0 0.6-0.4 1-1 1zM958.4 820.2h-239c-0.6 0-1-0.4-1-1V635c0-66.6 53.9-120.5 120.5-120.5S959.4 568.4 959.4 635v184.2c0 0.6-0.4 1-1 1zM631.9 820.2h-239c-0.6 0-1-0.4-1-1V183.3c0-66.6 53.9-120.5 120.5-120.5s120.5 53.9 120.5 120.5v635.9c0 0.6-0.4 1-1 1z" fill="#5485F0" p-id="44012"></path><path d="M925.6 958.9H99.3c-19 0-34.4-15.4-34.4-34.4s15.4-34.4 34.4-34.4h826.3c19 0 34.4 15.4 34.4 34.4s-15.4 34.4-34.4 34.4z" fill="#FFC046" p-id="44013"></path></svg>