<?xml version="1.0" standalone="no"?><!DOCTYPE svg PUBLIC "-//W3C//DTD SVG 1.1//EN" "http://www.w3.org/Graphics/SVG/1.1/DTD/svg11.dtd"><svg t="1575966008775" class="icon" viewBox="0 0 1024 1024" version="1.1" xmlns="http://www.w3.org/2000/svg" p-id="89717" xmlns:xlink="http://www.w3.org/1999/xlink" width="200" height="200"><defs><style type="text/css"></style></defs><path d="M236.501523 0m40.076869 0l0 0q40.076869 0 40.076869 40.076869l0 160.547457q0 40.076869-40.076869 40.076869l0 0q-40.076869 0-40.076869-40.076869l0-160.547457q0-40.076869 40.076869-40.076869Z" fill="#FF5959" p-id="89718"></path><path d="M471.923131 0m40.076869 0l0 0q40.076869 0 40.076869 40.076869l0 160.547457q0 40.076869-40.076869 40.076869l0 0q-40.076869 0-40.076869-40.076869l0-160.547457q0-40.076869 40.076869-40.076869Z" fill="#FF5959" p-id="89719"></path><path d="M707.344739 0m40.076869 0l0 0q40.076869 0 40.076869 40.076869l0 160.547457q0 40.076869-40.076869 40.076869l0 0q-40.076869 0-40.076869-40.076869l0-160.547457q0-40.076869 40.076869-40.076869Z" fill="#FF5959" p-id="89720"></path><path d="M873.171783 89.273026h-45.356456v116.390907a80.153738 80.153738 0 1 1-160.547457 0V89.273026h-74.874151v116.390907a80.153738 80.153738 0 1 1-160.547457 0V89.273026h-75.114132v116.390907a80.153738 80.153738 0 0 1-80.153738 80.153737 80.153738 80.153738 0 0 1-80.153738-80.153737V89.273026H150.588235a119.990626 119.990626 0 0 0-119.990625 119.990625v694.265761a119.990626 119.990626 0 0 0 119.990625 119.990625h722.583548a119.990626 119.990626 0 0 0 119.990626-119.990625V209.503633a119.990626 119.990626 0 0 0-119.990626-120.230607z" fill="#FFBE39" p-id="89721"></path><path d="M151.068198 435.805953m40.076869 0l641.949847 0q40.076869 0 40.076869 40.076869l0 0q0 40.076869-40.076869 40.076869l-641.949847 0q-40.076869 0-40.076869-40.076869l0 0q0-40.076869 40.076869-40.076869Z" fill="#FFFFFF" p-id="89722"></path><path d="M151.068198 596.35341m40.076869 0l281.018045 0q40.076869 0 40.076869 40.076869l0 0q0 40.076869-40.076869 40.076869l-281.018045 0q-40.076869 0-40.076869-40.076869l0 0q0-40.076869 40.076869-40.076869Z" fill="#FFFFFF" p-id="89723"></path><path d="M151.068198 756.900867m40.076869 0l492.681509 0q40.076869 0 40.076869 40.076869l0 0q0 40.076869-40.076869 40.076869l-492.681509 0q-40.076869 0-40.076869-40.076869l0 0q0-40.076869 40.076869-40.076869Z" fill="#FFFFFF" p-id="89724"></path></svg>