<?xml version="1.0" standalone="no"?><!DOCTYPE svg PUBLIC "-//W3C//DTD SVG 1.1//EN" "http://www.w3.org/Graphics/SVG/1.1/DTD/svg11.dtd"><svg t="1575965703109" class="icon" viewBox="0 0 1024 1024" version="1.1" xmlns="http://www.w3.org/2000/svg" p-id="83363" xmlns:xlink="http://www.w3.org/1999/xlink" width="200" height="200"><defs><style type="text/css"></style></defs><path d="M896 281.6H128c-14.933333 0-27.733333-8.533333-29.866667-23.466667s2.133333-27.733333 14.933334-36.266666l317.866666-194.133334c51.2-32 115.2-32 166.4 0l317.866667 194.133334c12.8 8.533333 17.066667 21.333333 14.933333 36.266666-6.4 14.933333-19.2 23.466667-34.133333 23.466667z m-654.933333-64h539.733333L561.066667 83.2c-29.866667-19.2-68.266667-19.2-100.266667 0l-219.733333 134.4z" fill="#7172EC" p-id="83364"></path><path d="M85.333333 192h853.333334c46.933333 0 85.333333 38.4 85.333333 85.333333v661.333334c0 46.933333-38.4 85.333333-85.333333 85.333333H85.333333c-46.933333 0-85.333333-38.4-85.333333-85.333333V277.333333c0-46.933333 38.4-85.333333 85.333333-85.333333z" fill="#9193F1" p-id="83365"></path><path d="M149.333333 256h725.333334c46.933333 0 85.333333 38.4 85.333333 85.333333v533.333334c0 46.933333-38.4 85.333333-85.333333 85.333333H149.333333c-46.933333 0-85.333333-38.4-85.333333-85.333333V341.333333c0-46.933333 38.4-85.333333 85.333333-85.333333z" fill="#6365EC" p-id="83366"></path><path d="M768 490.666667c-164.266667 0-298.666667 134.4-298.666667 298.666666 0 64 19.2 121.6 53.333334 170.666667H874.666667c46.933333 0 85.333333-38.4 85.333333-85.333333V561.066667c-51.2-44.8-119.466667-70.4-192-70.4z" fill="#7172EC" p-id="83367"></path><path d="M486.4 576H234.666667c-17.066667 0-32-14.933333-32-32S217.6 512 234.666667 512h251.733333c17.066667 0 32 14.933333 32 32s-12.8 32-32 32zM789.333333 746.666667H234.666667c-17.066667 0-32-14.933333-32-32S217.6 682.666667 234.666667 682.666667h554.666666c17.066667 0 32 14.933333 32 32S806.4 746.666667 789.333333 746.666667z" fill="#FFFFFF" p-id="83368"></path></svg>