<?xml version="1.0" standalone="no"?><!DOCTYPE svg PUBLIC "-//W3C//DTD SVG 1.1//EN" "http://www.w3.org/Graphics/SVG/1.1/DTD/svg11.dtd"><svg t="1575949286158" class="icon" viewBox="0 0 1024 1024" version="1.1" xmlns="http://www.w3.org/2000/svg" p-id="44395" xmlns:xlink="http://www.w3.org/1999/xlink" width="200" height="200"><defs><style type="text/css"></style></defs><path d="M316.2112 91.0848H120.832C54.0672 91.0848 0 145.0496 0 210.688v193.2288c0 66.1504 54.0672 119.6032 120.832 119.6032h195.3792c66.304 0 120.832-53.4528 120.832-119.6032V210.688c0-65.6384-54.528-119.6032-120.832-119.6032zM116.1216 230.5536c0-14.0288 11.6224-25.6512 25.6512-25.6512h153.4976c14.0288 0 25.6512 11.6224 25.6512 25.6512v153.4976a25.8048 25.8048 0 0 1-25.6 25.6512H141.7216a25.8048 25.8048 0 0 1-25.6-25.6512V230.5536z m200.0896 361.1136H120.832C54.5792 591.6672 0 645.12 0 710.7584v193.28c0 66.0992 54.0672 119.6032 120.832 119.6032h195.3792c66.816 0 120.832-53.504 120.832-119.6032v-193.28c0-65.5872-54.528-119.0912-120.832-119.0912zM116.1216 730.624c0-14.0288 11.6224-25.6 25.6512-25.6h153.4976c14.0288 0 25.6512 11.5712 25.6512 25.6v153.4976a25.8048 25.8048 0 0 1-25.6 25.6512H141.7216a25.8048 25.8048 0 0 1-25.6-25.6V730.624z m745.7792-138.9568H666.624c-66.816 0-120.832 53.504-120.832 119.6032v192.768c0 66.0992 54.016 119.6032 120.832 119.6032h195.328c66.816 0 120.8832-53.504 120.8832-119.6032v-193.28c0-65.5872-54.0672-119.0912-120.832-119.0912z m-200.0384 138.9568c0-14.0288 11.6224-25.6 25.6-25.6h153.5488c14.0288 0 25.6 11.5712 25.6 25.6v153.4976a25.8048 25.8048 0 0 1-25.6 25.6512h-153.4976a25.8048 25.8048 0 0 1-25.6512-25.6V730.624z" fill="#3B9CFF" p-id="44396"></path><path d="M642.4064 301.9776l91.648 93.696a56.32 56.32 0 1 1-80.4864 78.7968l-130.6112-133.5808a56.32 56.32 0 0 1 0.4096-79.2064l199.168-199.1168a56.32 56.32 0 0 1 79.616 0l199.1168 199.168a56.32 56.32 0 0 1-0.4608 80.0256l-126.5664 123.904a56.32 56.32 0 1 1-78.7968-80.5376l85.9136-84.0704-119.04-118.9888-119.9104 119.9104z" fill="#AED6FF" p-id="44397"></path></svg>