<?xml version="1.0" standalone="no"?><!DOCTYPE svg PUBLIC "-//W3C//DTD SVG 1.1//EN" "http://www.w3.org/Graphics/SVG/1.1/DTD/svg11.dtd"><svg t="1575966258117" class="icon" viewBox="0 0 1024 1024" version="1.1" xmlns="http://www.w3.org/2000/svg" p-id="101408" xmlns:xlink="http://www.w3.org/1999/xlink" width="200" height="200"><defs><style type="text/css"></style></defs><path d="M654.33 268.66c0 116.12-80.41 249.99-179.61 249.99s-179.6-133.88-179.6-249.99 80.41-170.51 179.6-170.51 179.61 54.39 179.61 170.51z" fill="#4151F5" p-id="101409"></path><path d="M474.72 550.65c-30.27 0-59.78-9.46-87.7-28.13-24.45-16.35-46.59-39.01-65.8-67.38-17.8-26.27-32.5-56.99-42.52-88.83-10.2-32.41-15.59-66.18-15.59-97.65 0-64.07 22.02-116.97 63.67-153 37.45-32.39 88.6-49.51 147.94-49.51s110.49 17.12 147.94 49.51c41.66 36.03 63.67 88.93 63.67 153 0 31.48-5.39 65.25-15.59 97.65-10.02 31.84-24.72 62.56-42.52 88.83-19.21 28.36-41.35 51.03-65.8 67.38-27.92 18.66-57.43 28.13-87.7 28.13z m0-420.5c-44.38 0-147.61 13.5-147.61 138.51 0 98.13 68.11 217.99 147.61 217.99 79.49 0 147.61-119.86 147.61-217.99 0-125.01-103.22-138.51-147.61-138.51zM723.23 953.72c-63.32 0-122.85-24.66-167.63-69.43-44.77-44.77-69.43-104.31-69.43-167.63 0-46.53 13.33-91.01 38.16-129.1-15.29 5.4-31.86 8.62-49.61 8.62-64.05 0-112.61-41.78-142.07-76.83l-11.19-13.31-17.25 2.14c-65.27 8.1-125.49 40.65-169.59 91.66-44.34 51.29-68.76 117.35-68.76 186v23.64c0 83.16 65.33 150.81 145.63 150.81h515.5c27.27 0 52.93-7.27 75.28-20.03-25.04 8.84-51.68 13.46-79.04 13.46z" fill="#4151F5" p-id="101410"></path><path d="M723.23 542.76c-96.04 0-173.89 77.85-173.89 173.89s77.85 173.89 173.89 173.89 173.89-77.85 173.89-173.89-77.85-173.89-173.89-173.89z m114.06 151.29L726.01 805.34l-82.43-63.3c-14.02-10.76-16.65-30.85-5.89-44.87 10.76-14.02 30.85-16.65 44.87-5.89l37.9 29.1 71.58-71.58c12.5-12.5 32.76-12.5 45.25 0 12.5 12.49 12.5 32.75 0 45.25z" fill="#4151F5" p-id="101411"></path></svg>