<?xml version="1.0" standalone="no"?><!DOCTYPE svg PUBLIC "-//W3C//DTD SVG 1.1//EN" "http://www.w3.org/Graphics/SVG/1.1/DTD/svg11.dtd"><svg t="1575966439208" class="icon" viewBox="0 0 1024 1024" version="1.1" xmlns="http://www.w3.org/2000/svg" p-id="114808" xmlns:xlink="http://www.w3.org/1999/xlink" width="200" height="200"><defs><style type="text/css"></style></defs><path d="M71.686372 373.788675l393.41481 250.424393a87.043186 87.043186 0 0 0 91.503672 0l393.287368-250.424393a63.72122 63.72122 0 0 0 0-110.23771L556.604854 13.126571a86.533416 86.533416 0 0 0-91.503672 0L71.686372 263.550965a63.72122 63.72122 0 0 0 0 110.23771z" fill="#4EA9F4" p-id="114809"></path><path d="M59.706783 555.649035l421.707032 273.364033a54.163037 54.163037 0 0 0 17.841941 7.391661h1.146982a63.72122 63.72122 0 0 0 6.499564 1.656752h8.283759a63.72122 63.72122 0 0 0 6.881892-0.892097h1.146982a54.800249 54.800249 0 0 0 17.969384-7.391662l420.560049-273.364032a55.182576 55.182576 0 1 0-59.770504-92.778096L536.086621 701.315744a73.916615 73.916615 0 0 1-50.976976 0L119.477287 463.635594a54.86397 54.86397 0 0 0-59.770504 92.013441z" fill="#4EA9F4" p-id="114810"></path><path d="M980.478407 666.014188a54.800249 54.800249 0 0 0-76.465464-16.18519L546.027131 882.666335a63.72122 63.72122 0 0 1-32.880149 8.156316 65.377971 65.377971 0 0 1-30.968513-7.136777L122.026136 649.828998a54.86397 54.86397 0 1 0-59.770504 92.013441l420.560049 273.364033a54.163037 54.163037 0 0 0 17.841942 7.391661h1.146982l7.009334 0.764655h8.156316l7.009334-0.764655h1.146982a54.163037 54.163037 0 0 0 17.841942-7.391661l420.56005-273.364033a54.672806 54.672806 0 0 0 16.949844-75.828251z" fill="#4EA9F4" p-id="114811"></path></svg>