<?xml version="1.0" standalone="no"?><!DOCTYPE svg PUBLIC "-//W3C//DTD SVG 1.1//EN" "http://www.w3.org/Graphics/SVG/1.1/DTD/svg11.dtd"><svg t="1586834930199" class="icon" viewBox="0 0 1024 1024" version="1.1" xmlns="http://www.w3.org/2000/svg" p-id="1411" xmlns:xlink="http://www.w3.org/1999/xlink" width="16" height="16"><defs><style type="text/css"></style></defs><path d="M388.928 466.08c110.208 0 199.872-88.448 199.872-197.152s-89.664-197.184-199.872-197.184c-110.24 0-199.968 88.48-199.968 197.184S278.688 466.08 388.928 466.08zM388.928 135.744c74.944 0 135.872 59.744 135.872 133.184s-60.928 133.152-135.872 133.152c-75.008 0-135.968-59.712-135.968-133.152S313.952 135.744 388.928 135.744z" p-id="1412"></path><path d="M465.856 800l-139.904 0C257.664 800 128 761.344 128 745.152l0-13.792C128 631.392 224 576 325.952 576l139.904 0c16.48 0 32.352-10.656 47.52-6.688 12.768-19.392 28.128-30.432 45.408-45.888C530.016 512 498.688 512 465.856 512l-139.904 0C188.672 512 64 596.128 64 731.36l0 13.792C64 825.344 186.88 864 325.952 864l139.904 0c11.552 0 22.912-0.032 34.112-0.064C489.536 843.968 481.632 800 476.512 800 472.736 800 469.184 800 465.856 800z" p-id="1413"></path><path d="M729.504 917.664c-121.376 0-220.128-98.752-220.128-220.16 0-121.376 98.752-220.128 220.128-220.128 121.408 0 220.16 98.752 220.16 220.128C949.664 818.912 850.912 917.664 729.504 917.664zM729.504 509.376c-103.712 0-188.128 84.416-188.128 188.128 0 103.744 84.416 188.16 188.128 188.16 103.744 0 188.16-84.416 188.16-188.16C917.664 593.792 833.248 509.376 729.504 509.376z" p-id="1414"></path><path d="M658.08 618.048c3.904-4.928 8.224-9.536 12.928-13.632l-23.36-23.328c-3.648-3.68-9.632-3.68-13.28 0-3.68 3.648-3.68 9.6 0 13.248L658.08 618.048 658.08 618.048zM734.016 580.512l0.288 0c3.104 0 6.112 0.224 9.12 0.512l0-31.808c0-5.184-4.224-9.408-9.408-9.408S724.672 544 724.672 549.184l0 31.808c3.008-0.288 6.016-0.512 9.12-0.512L734.016 580.48 734.016 580.512zM810.016 618.048l23.68-23.712c3.68-3.648 3.68-9.6 0-13.248-3.648-3.68-9.6-3.68-13.28 0l-23.36 23.328C801.76 608.544 806.048 613.12 810.016 618.048L810.016 618.048zM635.008 684.704c0-4.576 0.352-8.992 0.864-13.376l-33.408 0c-5.152 0-9.376 4.192-9.376 9.408 0 5.184 4.224 9.376 9.376 9.376l32.672 0C635.04 688.352 635.008 686.56 635.008 684.704L635.008 684.704zM865.6 671.328l-33.408 0c0.544 4.384 0.864 8.832 0.864 13.376 0 1.856-0.032 3.616-0.096 5.408l32.64 0c5.184 0 9.376-4.192 9.376-9.376C874.976 675.52 870.784 671.328 865.6 671.328L865.6 671.328zM814.944 748.384c-3.808 5.6-7.84 10.432-11.712 14.816l17.184 17.184c3.68 3.68 9.632 3.68 13.28 0 3.68-3.648 3.68-9.6 0-13.28L814.944 748.384 814.944 748.384zM634.368 767.104c-3.68 3.68-3.68 9.632 0 13.28 3.648 3.68 9.632 3.68 13.28 0l17.216-17.184c-3.872-4.384-7.936-9.216-11.744-14.816L634.368 767.104 634.368 767.104zM820.032 684.704c0.032-19.488-6.464-37.536-17.408-51.968-9.6-12.672-22.624-22.592-37.728-28.448l0.096-0.416-6.432-1.92c-5.024-1.44-10.176-2.432-15.456-3.008l-0.736-0.064 0 0-0.032-0.032c-2.592-0.256-5.28-0.416-8.064-0.416l-0.416 0c-2.816 0-5.504 0.16-8.096 0.416l-0.032 0.032-0.768 0.064c-5.248 0.576-10.4 1.568-15.392 3.008l-6.24 1.856 0.064 0.416c-15.168 5.824-28.256 15.776-37.92 28.512-10.912 14.432-17.408 32.48-17.408 51.968 0 13.984 2.4 25.44 6.144 34.944 5.664 14.272 14.24 23.904 21.184 31.232 3.424 3.616 6.496 6.752 8.576 9.408 2.112 2.656 3.136 4.736 3.424 6.368 1.504 7.968 1.664 18.016 1.664 20.608l0 0.736c0 11.52 9.344 20.832 20.864 20.864l48.256 0c11.52-0.032 20.864-9.344 20.864-20.864l0-0.704c0-2.528 0.16-12.64 1.696-20.64 0.192-1.088 0.672-2.368 1.664-3.904 1.664-2.688 4.768-6.048 8.672-10.08 5.76-6.08 13.12-13.76 18.976-24.672C815.872 717.12 820.064 703.04 820.032 684.704L820.032 684.704zM800.352 714.304c-4.64 11.616-11.552 19.488-18.208 26.528-3.328 3.52-6.592 6.816-9.472 10.432-2.816 3.552-5.312 7.648-6.272 12.672-1.824 9.824-1.92 20.32-1.92 23.328l0 0.704c-0.032 3.456-2.816 6.304-6.304 6.304l-48.256 0c-1.76 0-3.328-0.704-4.48-1.888s-1.856-2.688-1.856-4.448l0-0.704c0-3.072-0.064-13.536-1.92-23.328-0.64-3.328-1.984-6.272-3.616-8.896-2.88-4.64-6.592-8.416-10.432-12.48-5.824-6.048-11.936-12.608-16.704-21.472-4.736-8.896-8.288-20.256-8.32-36.416 0.032-16.256 5.376-31.168 14.464-43.168s21.888-21.056 36.64-25.472l1.824-0.576c3.552-0.896 7.232-1.664 10.976-2.016l0.032 0 0.704-0.096c2.176-0.192 4.352-0.352 6.464-0.352l0.384 0.032 0.384-0.032c2.08 0 4.256 0.16 6.432 0.352l-0.032 0 0.704 0.096 0.032 0c3.744 0.384 7.392 1.088 10.944 2.016l1.888 0.576c14.752 4.416 27.488 13.472 36.64 25.472 9.056 12 14.432 26.912 14.432 43.168C805.472 697.024 803.392 706.56 800.352 714.304L800.352 714.304zM743.104 599.008 743.104 599.008 743.104 599.008zM724.928 599.008 724.928 599.008 724.928 599.008 724.928 599.008 724.928 599.008zM757.984 814.592 710.08 814.592c-4.928 0-8.96 4-8.96 8.96 0 4.928 4.032 8.96 8.96 8.96l47.872 0c4.928 0 8.96-4.032 8.96-8.96C766.944 818.56 762.912 814.592 757.984 814.592L757.984 814.592zM757.984 837.216 710.08 837.216c-4.928 0-8.96 4.032-8.96 8.96 0 4.96 4.032 8.96 8.96 8.96l47.872 0c4.928 0 8.96-4 8.96-8.96C766.944 841.248 762.912 837.216 757.984 837.216L757.984 837.216zM738.208 860.032 713.6 860.032c0 0.288-0.064 0.544-0.064 0.8 0 4.96 7.616 8.992 14.656 8.992l11.68 0c7.072 0 14.656-4.032 14.656-8.992 0-0.288-0.032-0.544-0.032-0.8L738.208 860.032 738.208 860.032zM738.208 860.032" p-id="1415"></path></svg>