<?xml version="1.0" standalone="no"?><!DOCTYPE svg PUBLIC "-//W3C//DTD SVG 1.1//EN" "http://www.w3.org/Graphics/SVG/1.1/DTD/svg11.dtd"><svg t="1575966006387" class="icon" viewBox="0 0 1024 1024" version="1.1" xmlns="http://www.w3.org/2000/svg" p-id="89590" xmlns:xlink="http://www.w3.org/1999/xlink" width="200" height="200"><defs><style type="text/css"></style></defs><path d="M873.917457 150.081903A508.989773 508.989773 0 0 0 511.99904 0.00256a507.581779 507.581779 0 0 0-361.918417 150.079343A508.989773 508.989773 0 0 0 0.00128 512.00032c0 136.895401 53.183767 265.342839 150.079343 361.918417A508.989773 508.989773 0 0 0 511.99904 1023.99808a508.029777 508.029777 0 0 0 361.918417-150.079343A508.989773 508.989773 0 0 0 1023.9968 512.00032a508.413776 508.413776 0 0 0-150.079343-361.918417z" fill="#35C237" p-id="89591"></path><path d="M426.687413 540.416196a85.311627 85.311627 0 1 0 170.623254 0 85.311627 85.311627 0 0 0-170.623254 0zM739.582044 540.416196a85.311627 85.311627 0 1 0 170.623254 0 85.311627 85.311627 0 0 0-170.623254 0zM113.792782 540.416196a85.311627 85.311627 0 1 0 170.623254 0 85.311627 85.311627 0 0 0-170.623254 0z" fill="#FFFFFF" p-id="89592"></path></svg>