<?xml version="1.0" standalone="no"?><!DOCTYPE svg PUBLIC "-//W3C//DTD SVG 1.1//EN" "http://www.w3.org/Graphics/SVG/1.1/DTD/svg11.dtd"><svg t="1585189081911" class="icon" viewBox="0 0 1024 1024" version="1.1" xmlns="http://www.w3.org/2000/svg" p-id="3353" xmlns:xlink="http://www.w3.org/1999/xlink" width="200" height="200"><defs><style type="text/css"></style></defs><path d="M352 544a128 128 0 0 1 128 128v192a128 128 0 0 1-128 128h-192a128 128 0 0 1-128-128v-192a128 128 0 0 1 128-128h192z m512 0a128 128 0 0 1 128 128v192a128 128 0 0 1-128 128h-192a128 128 0 0 1-128-128v-192a128 128 0 0 1 128-128h192z m-512 102.4h-192a25.6 25.6 0 0 0-25.6 25.6v192c0 14.08 11.52 25.6 25.6 25.6h192a25.6 25.6 0 0 0 25.6-25.6v-192a25.6 25.6 0 0 0-25.6-25.6z m512 0h-192a25.6 25.6 0 0 0-25.6 25.6v192c0 14.08 11.52 25.6 25.6 25.6h192a25.6 25.6 0 0 0 25.6-25.6v-192a25.6 25.6 0 0 0-25.6-25.6zM352 32a128 128 0 0 1 128 128v192a128 128 0 0 1-128 128h-192a128 128 0 0 1-128-128v-192a128 128 0 0 1 128-128h192z m0 102.4h-192a25.6 25.6 0 0 0-25.6 25.6v192c0 14.08 11.52 25.6 25.6 25.6h192a25.6 25.6 0 0 0 25.6-25.6v-192a25.6 25.6 0 0 0-25.6-25.6z" fill="#e16531" p-id="3354" data-spm-anchor-id="a313x.7781069.0.i6" class=""></path><path d="M849.472 38.784l135.744 135.744a115.2 115.2 0 0 1 0 162.944l-135.744 135.744a115.2 115.2 0 0 1-162.944 0L550.784 337.472a115.2 115.2 0 0 1 0-162.944L686.528 38.784a115.2 115.2 0 0 1 162.944 0zM776.96 111.168a12.8 12.8 0 0 0-18.048 0L623.168 247.04a12.8 12.8 0 0 0 0 18.048l135.808 135.808a12.8 12.8 0 0 0 18.048 0l135.808-135.808a12.8 12.8 0 0 0 0-18.048L776.96 111.168z" fill="#efb336" p-id="3355" data-spm-anchor-id="a313x.7781069.0.i7" class=""></path></svg>