<?xml version="1.0" standalone="no"?><!DOCTYPE svg PUBLIC "-//W3C//DTD SVG 1.1//EN" "http://www.w3.org/Graphics/SVG/1.1/DTD/svg11.dtd"><svg t="1586835920297" class="icon" viewBox="0 0 1024 1024" version="1.1" xmlns="http://www.w3.org/2000/svg" p-id="2163" xmlns:xlink="http://www.w3.org/1999/xlink" width="16" height="16"><defs><style type="text/css"></style></defs><path d="M511.600312 707.447307c-107.116315 0-195.047619-87.131928-195.047619-194.248244S403.684621 318.95082 511.600312 318.95082c51.959407 0 100.721311 19.984387 137.492584 56.755659s57.555035 85.533177 56.75566 137.492584c0.799375 106.31694-86.332553 194.248244-194.248244 194.248244m457.242779-281.380172l-91.928181-19.984387-2.398126-7.19438c-5.595628-19.185012-13.589383-38.370023-23.981265-58.35441l-3.197502-6.395004 49.56128-82.335675c15.188134-23.981265 21.583138-57.555035 1.598751-76.740047l-46.363778-46.363778c-11.990632-11.990632-26.379391-14.388759-37.570648-14.388759-14.388759 0-29.576893 4.796253-41.567525 12.790008l-79.937549 51.160031-6.395004-3.197502c-19.185012-9.592506-38.370023-18.385636-58.354411-23.981265l-7.194379-2.398126-19.984387-93.526932C596.334114 28.777518 573.152225 0.799375 544.374707 0.799375h-65.54879c-27.978142 0-46.363778 27.978142-52.758782 55.956285l-23.181889 91.128805-7.194379 2.398127c-20.783763 6.395004-41.567525 15.188134-61.551913 26.379391l-6.395004 2.398126-82.335675-52.758782c-11.191257-7.993755-27.178767-12.790008-41.567526-12.790008-10.391881 0-25.580016 2.398126-37.570648 14.388759L119.906323 174.263856c-19.984387 19.984387-13.589383 52.758782 1.598751 76.740047l51.959407 86.332553-3.197502 6.395004c-9.592506 19.185012-16.786885 36.771272-22.382514 54.357533l-2.398126 7.194379-91.128806 20.783763c-26.379391 4.796253-54.357533 27.178767-54.357533 55.956284v65.54879c0 27.978142 27.978142 46.363778 55.956284 52.758782L147.884465 623.512881l2.398127 6.395003c5.595628 16.786885 11.990632 32.774395 20.783762 50.360656l3.197502 6.395004-51.959406 86.332553c-15.188134 23.981265-21.583138 57.555035-1.598751 76.740047l46.363778 46.363778c11.990632 11.990632 26.379391 14.388759 37.570648 14.388759 14.388759 0 29.576893-4.796253 41.567525-12.790008l82.335676-52.758782 6.395003 3.197502c19.984387 10.391881 41.567525 19.185012 62.351288 26.379391l7.19438 2.398126 22.382514 91.128806c6.395004 27.978142 25.580016 55.956284 52.758782 55.956284h65.54879c28.777518 0 51.959407-27.978142 56.755659-54.357533l20.783763-92.727557 7.194379-2.398126c19.185012-6.395004 38.370023-14.388759 57.555036-23.981265l6.395003-3.197502 80.736925 51.160031c11.191257 7.993755 27.178767 12.790008 41.567525 12.790008 10.391881 0 25.580016-2.398126 37.570648-14.388759l46.363778-46.363778c19.984387-19.984387 13.589383-52.758782-1.598751-76.740047L847.338017 691.459797l3.197502-6.395004c8.79313-17.586261 16.786885-35.971897 22.382514-54.357533l2.398126-6.395004 91.928181-23.181889c27.978142-6.395004 55.956284-25.580016 55.956285-52.758782v-65.54879c0-29.576893-27.978142-51.959407-54.357534-56.75566" fill="#1CDDEB" p-id="2164"></path></svg>