<?xml version="1.0" standalone="no"?><!DOCTYPE svg PUBLIC "-//W3C//DTD SVG 1.1//EN" "http://www.w3.org/Graphics/SVG/1.1/DTD/svg11.dtd"><svg t="1576718892205" class="icon" viewBox="0 0 1306 1024" version="1.1" xmlns="http://www.w3.org/2000/svg" p-id="8221" xmlns:xlink="http://www.w3.org/1999/xlink" width="255.078125" height="200"><defs><style type="text/css"></style></defs><path d="M767.87522 255.958407H0V110.062115A110.062115 110.062115 0 0 1 110.062115 0h410.813243a110.062115 110.062115 0 0 1 88.30565 44.152825z" fill="#FF9100" p-id="8222"></path><path d="M1106.380213 1023.833627H108.142427a63.989602 63.989602 0 0 1-63.989602-87.665754l127.979204-383.93761a71.668354 71.668354 0 0 1 63.989601-37.113969h998.237787a63.989602 63.989602 0 0 1 63.989601 87.665754l-127.979203 387.13709a71.668354 71.668354 0 0 1-63.989602 33.914489z" fill="#FFBC00" p-id="8223"></path><path d="M173.411821 447.927212H1151.81283V238.041318A110.062115 110.062115 0 0 0 1041.750716 127.979203H0v687.888219l109.422219-326.346969a71.028458 71.028458 0 0 1 63.989602-41.593241z" fill="#FFBC00" p-id="8224"></path></svg>