<?xml version="1.0" standalone="no"?><!DOCTYPE svg PUBLIC "-//W3C//DTD SVG 1.1//EN" "http://www.w3.org/Graphics/SVG/1.1/DTD/svg11.dtd"><svg t="1575949281450" class="icon" viewBox="0 0 1024 1024" version="1.1" xmlns="http://www.w3.org/2000/svg" p-id="44138" xmlns:xlink="http://www.w3.org/1999/xlink" width="200" height="200"><defs><style type="text/css"></style></defs><path d="M512.59904 928.30208c-73.29792 0-133.00224-59.6992-133.00224-133.00224 0-11.60192 9.40032-21.00224 21.00224-21.00224h224a20.99712 20.99712 0 0 1 21.00224 21.00224c0 73.29792-59.60192 133.00224-133.00224 133.00224z" fill="#FF962B" p-id="44139"></path><path d="M806.00064 816.30208H217.99936c-57.90208 0-105.00096-47.09888-105.00096-105.00096s47.09888-105.00096 105.00096-105.00096V406.20032c0-131.39968 85.60128-244.89984 210.29888-281.6 3.70176-42.99776 39.79776-76.8 83.70176-76.8s80 33.80224 83.70176 76.8c124.6976 36.70016 210.29888 150.09792 210.29888 281.6v200.09984c57.90208 0 105.00096 47.09888 105.00096 105.00096 0 57.79968-47.104 105.00096-105.00096 105.00096z" fill="#FF962B" p-id="44140"></path></svg>