<?xml version="1.0" standalone="no"?><!DOCTYPE svg PUBLIC "-//W3C//DTD SVG 1.1//EN" "http://www.w3.org/Graphics/SVG/1.1/DTD/svg11.dtd"><svg t="1575965700818" class="icon" viewBox="0 0 1225 1024" version="1.1" xmlns="http://www.w3.org/2000/svg" p-id="83235" xmlns:xlink="http://www.w3.org/1999/xlink" width="239.2578125" height="200"><defs><style type="text/css"></style></defs><path d="M612.576005 255.743236m-255.743236 0a255.743236 255.743236 0 1 0 511.486471 0 255.743236 255.743236 0 1 0-511.486471 0Z" fill="#F77724" p-id="83236"></path><path d="M709.053992 589.587699h-192.955975a348.137499 348.137499 0 0 0-348.137498 348.137499A86.268676 86.268676 0 0 0 255.250126 1023.993874h714.651757a86.268676 86.268676 0 0 0 86.268676-86.268676 348.137499 348.137499 0 0 0-347.116567-348.137499zM333.861819 408.372432a313.936307 313.936307 0 0 1-40.326777-153.139662A319.040963 319.040963 0 0 1 403.285133 15.824432a204.186216 204.186216 0 0 0-51.046554-7.656983A201.123423 201.123423 0 0 0 333.861819 408.372432zM931.616967 255.23277a313.936307 313.936307 0 0 1-40.326777 153.139662 201.123423 201.123423 0 0 0-16.334898-400.204983 204.186216 204.186216 0 0 0-51.046554 7.656983A319.040963 319.040963 0 0 1 931.616967 255.23277z" fill="#F77724" p-id="83237"></path><path d="M453.821222 531.905093a317.509566 317.509566 0 0 1-74.017504-59.214002H274.137351A274.119995 274.119995 0 0 0 0.017356 746.811086 68.402382 68.402382 0 0 0 67.909273 816.744865h56.151209a412.456157 412.456157 0 0 1 329.76074-284.839772zM951.014658 472.691091h-105.666367a317.509566 317.509566 0 0 1-74.017503 59.214002A412.456157 412.456157 0 0 1 1101.091527 816.744865h56.151209A68.402382 68.402382 0 0 0 1225.134653 746.811086a274.119995 274.119995 0 0 0-274.119995-274.119995z" fill="#F77724" p-id="83238"></path></svg>