<?xml version="1.0" standalone="no"?><!DOCTYPE svg PUBLIC "-//W3C//DTD SVG 1.1//EN" "http://www.w3.org/Graphics/SVG/1.1/DTD/svg11.dtd"><svg t="1575965435047" class="icon" viewBox="0 0 1024 1024" version="1.1" xmlns="http://www.w3.org/2000/svg" p-id="73335" xmlns:xlink="http://www.w3.org/1999/xlink" width="200" height="200"><defs><style type="text/css"></style></defs><path d="M511.202133 503.388444m-396.721777 0a396.721778 396.721778 0 1 0 793.443555 0 396.721778 396.721778 0 1 0-793.443555 0Z" fill="#FFFFFF" p-id="73336"></path><path d="M510.8736 7.426844C232.2176 7.426844 5.518222 234.127644 5.518222 512.783644c0 278.660267 226.699378 505.355378 505.355378 505.355378 278.661689 0 505.355378-226.696533 505.355378-505.355378 0-278.656-226.693689-505.3568-505.355378-505.3568z m-48.105244 192.661334c0-26.443378 21.654756-48.105244 48.105244-48.105245s48.105244 21.661867 48.105244 48.105245v264.5888c0 26.450489-21.656178 48.106667-48.105244 48.106666-26.450489 0-48.105244-21.656178-48.105244-48.106666V200.088178z m48.105244 625.389511c-172.694756 0-312.694044-140.000711-312.694044-312.694045 0-130.062222 79.443911-241.517511 192.428088-288.64v108.639289c-58.016711 38.828089-96.211911 104.927289-96.211911 180.000711 0 119.587556 96.894578 216.482133 216.477867 216.482134 119.588978 0 216.483556-96.894578 216.483556-216.482134 0-75.073422-38.192356-141.172622-96.216178-180.000711v-108.639289c112.988444 47.122489 192.428089 158.577778 192.428089 288.64-0.001422 172.693333-140.000711 312.694044-312.695467 312.694045z m0 0" fill="#539EFF" p-id="73337"></path></svg>