<?xml version="1.0" standalone="no"?><!DOCTYPE svg PUBLIC "-//W3C//DTD SVG 1.1//EN" "http://www.w3.org/Graphics/SVG/1.1/DTD/svg11.dtd"><svg t="1575965707483" class="icon" viewBox="0 0 1024 1024" version="1.1" xmlns="http://www.w3.org/2000/svg" p-id="83620" xmlns:xlink="http://www.w3.org/1999/xlink" width="200" height="200"><defs><style type="text/css"></style></defs><path d="M394.0096 79.044923v95.704615H167.036062c-46.276923 0-80.344615 37.966769-80.344616 89.481847 0 178.254769 0.275692 356.509538-0.196923 534.764307-0.157538 47.182769 32.137846 81.132308 61.991385 87.355077 6.616615 1.339077 13.390769 1.969231 20.125538 1.969231 72.388923 0.157538 144.738462 0.118154 217.127385 0.118154h8.152615v95.153231c-1.024 0.196923-2.244923 0.708923-3.465846 0.708923-76.918154 0-153.875692 0.905846-230.793846-0.354462-75.224615-1.181538-141.784615-64.590769-156.16-146.668308a207.044923 207.044923 0 0 1-2.993231-35.288615C0.2816 621.764923-0.151631 441.580308 0.557292 261.356308c0.315077-75.224615 33.949538-129.299692 92.75077-164.391385a130.126769 130.126769 0 0 1 67.229538-18.077538c76.288-0.236308 152.576-0.078769 228.903385-0.07877 1.260308 0 2.56 0.157538 4.568615 0.236308z" fill="#007AFF" p-id="83621"></path><path d="M573.091446 703.606154H263.764677c-14.808615 0-24.457846-7.246769-26.860308-20.086154-0.472615-2.599385-0.393846-5.316923-0.393846-7.955692v-282.781539c0-17.880615 9.058462-27.411692 26.190769-27.411692h310.390154V356.824615 105.156923c0-11.539692 5.159385-20.755692 13.942154-24.300308 10.121846-4.056615 19.101538-2.166154 26.702769 6.340923 4.332308 4.923077 9.137231 9.452308 13.627077 14.178462l169.708308 179.869538 217.954461 230.872616c12.091077 12.8 12.209231 26.308923 0.236308 38.990769l-311.965538 330.515692c-29.577846 31.350154-59.313231 62.464-88.891077 93.814154-7.601231 8.073846-16.068923 11.618462-26.466462 7.443693-10.082462-4.056615-14.848-12.484923-14.848-25.757539v-243.751385-9.728z" fill="#7FBCFF" p-id="83622"></path></svg>