<?xml version="1.0" standalone="no"?><!DOCTYPE svg PUBLIC "-//W3C//DTD SVG 1.1//EN" "http://www.w3.org/Graphics/SVG/1.1/DTD/svg11.dtd"><svg t="1575965714557" class="icon" viewBox="0 0 1024 1024" version="1.1" xmlns="http://www.w3.org/2000/svg" p-id="83877" xmlns:xlink="http://www.w3.org/1999/xlink" width="200" height="200"><defs><style type="text/css"></style></defs><path d="M856.35026505 719.50803088c-57.03145453 0-103.25519775-46.22374459-103.25519775-103.25519774s46.22374459-103.25519775 103.25519775-103.25519774h75.82024216c15.29706649 0 27.60122815-12.30416166 27.60122815-27.60122952v-96.43802665c0-45.72492688-37.07875893-82.63741326-82.63741188-82.63741327H146.86567652c-45.72492688 0-82.63741326 37.07875893-82.63741188 82.63741327v454.58890646c0 45.72492688 37.07875893 82.63741326 82.63741188 82.63741324h730.26864696c45.72492688 0 82.63741326-37.07875893 82.63741188-82.63741324v-96.43802666c0-15.29706649-12.30416166-27.60122815-27.60122815-27.60122815h-75.82024216z" fill="#FF6B6B" p-id="83878"></path><path d="M859.84198757 616.08656058m-51.71073515 0a51.71073516 51.71073516 0 1 0 103.42147031 0 51.71073516 51.71073516 0 1 0-103.42147031 0Z" fill="#FF6B6B" p-id="83879"></path><path d="M784.85310686 249.78833051l-85.96286184-117.88717534c-23.44441675-32.0905847-66.17643879-42.89829463-102.09128977-26.10477642l-295.96497985 139.66886779c-13.30179707 6.3183534-8.81244052 26.27104899 5.8195357 26.27104763h466.8930695c11.47280021 0 17.95742618-12.80297936 11.30652626-21.94796366z" fill="#FF6B6B" p-id="83880"></path></svg>