<?xml version="1.0" standalone="no"?><!DOCTYPE svg PUBLIC "-//W3C//DTD SVG 1.1//EN" "http://www.w3.org/Graphics/SVG/1.1/DTD/svg11.dtd"><svg t="1586834911075" class="icon" viewBox="0 0 1024 1024" version="1.1" xmlns="http://www.w3.org/2000/svg" p-id="1287" xmlns:xlink="http://www.w3.org/1999/xlink" width="16" height="16"><defs><style type="text/css"></style></defs><path d="M710.88 595.456c0-4.704 3.936-8.416 8.672-8.416l0.544 0c4.48 0 8.416 3.68 8.416 8.416l0 8.672 98.016 0c4.48 0 8.672 3.68 8.672 8.672l0 0.256c0 4.736-4.192 8.416-8.672 8.416l-213.312 0c-4.736 0-8.672-3.648-8.672-8.416L604.544 612.8c0-4.992 3.936-8.672 8.672-8.672l97.728 0L710.944 595.456zM817.536 681.376c0 3.68-0.768 7.328-2.08 10.784-4.736 10.208-14.176 17.312-25.76 17.312l-77.248 0c0 0.8-0.256 1.6-0.512 2.368l-4.224 11.328 85.632 0c4.48 0 8.672 1.024 12.864 2.624 7.904 3.392 13.952 9.44 17.344 17.312 1.6 4.224 2.624 8.16 2.624 12.864l0 36.256c0 4.48-1.024 8.928-2.624 12.64-3.392 8.416-9.44 14.176-17.344 17.6-4.192 1.856-8.416 2.624-12.864 2.624l-8.672 0c-4.704 0-8.672-3.68-8.672-8.672l0-0.288c0-4.96 3.936-8.672 8.672-8.672l8.672 0c4.48 0 8.16-1.6 10.784-4.48 2.912-2.88 4.224-6.56 4.224-10.784l0-36.256c0-4.192-1.312-7.872-4.224-10.752-2.624-2.912-6.304-4.48-10.784-4.48l-92.192 0-17.088 45.44 63.84 0c6.048 0 10.496-4.192 10.496-10.24l0-8.128c0-4.736 3.68-8.672 8.672-8.672s8.672 3.936 8.672 8.672l0 8.128c0 15.264-12.352 27.84-27.84 27.84L670.4 803.744c-2.88 0-5.248-1.312-6.816-3.648-1.856-2.368-2.368-5.28-1.056-7.904l19.2-51.456-35.456 0c-4.48 0-8.16 1.568-11.04 4.48-2.912 2.88-4.224 6.56-4.224 10.752l0 60.448c0 4.48-3.936 8.672-8.672 8.672l-0.544 0c-4.48 0-8.416-4.192-8.416-8.672l0-60.448c0-4.704 0.768-8.672 2.368-12.864 3.68-7.872 9.728-13.92 17.6-17.312 3.936-1.6 8.16-2.624 12.864-2.624l42.016 0 5.248-13.696-43.872 0c-7.328 0-14.176-3.136-19.424-8.416-2.336-2.624-4.192-5.504-6.016-8.896-1.312-3.424-2.08-7.104-2.08-10.784l0-39.392c0-4.704 3.936-8.672 8.672-8.672l0.544 0c4.704 0 8.672 3.936 8.672 8.672l0 39.392c0 2.88 1.056 5.248 2.912 7.328 1.856 1.856 3.936 2.912 6.816 2.912l140.032 0c3.168 0 5.504-1.056 7.328-2.912 1.856-2.08 2.912-4.48 2.912-7.328l0-39.392c0-4.704 3.936-8.672 8.672-8.672l0.256 0c4.736 0 8.672 3.936 8.672 8.672L817.568 681.376zM751.584 656.416l29.952 10.24c4.704 1.6 7.104 6.56 5.536 11.04l0 0.768c-1.856 4.224-6.56 6.592-11.328 5.28l-50.432-17.632c-19.168 6.848-39.136 12.352-59.36 17.088-4.96 1.312-9.44-1.6-10.496-6.56l0-0.544c-1.024-4.48 1.6-8.928 6.048-10.24 11.808-2.88 23.872-6.016 35.424-9.728l-30.72-10.784c-4.48-1.568-6.848-6.56-5.248-11.04l0-0.256c1.568-4.48 6.272-6.848 11.04-5.536l53.056 18.656c15.488-5.504 30.464-11.552 45.184-18.368 4.192-2.112 9.44-0.288 11.296 4.192l0.288 0c2.08 4.48 0.256 9.728-3.936 11.552C769.184 648.8 760.544 652.736 751.584 656.416z" p-id="1288"></path><path d="M372.928 466.08c110.208 0 199.872-88.448 199.872-197.152s-89.664-197.184-199.872-197.184c-110.24 0-199.968 88.48-199.968 197.184S262.688 466.08 372.928 466.08zM372.928 135.744c74.944 0 135.872 59.744 135.872 133.184s-60.928 133.152-135.872 133.152c-75.008 0-135.968-59.712-135.968-133.152S297.952 135.744 372.928 135.744z" p-id="1289"></path><path d="M449.856 800 309.952 800C241.664 800 96 761.344 96 745.152l0-13.792C96 631.392 208 576 309.952 576l139.904 0c16.48 0 32.352-10.656 47.52-6.688 12.768-19.392 28.128-30.432 45.408-45.888C514.016 512 482.688 512 449.856 512L309.952 512C172.672 512 32 596.128 32 731.36l0 13.792C32 825.344 170.88 864 309.952 864l139.904 0c11.552 0 22.912-0.032 34.112-0.064C473.536 843.968 465.632 800 460.512 800 456.736 800 453.184 800 449.856 800z" p-id="1290"></path><path d="M713.504 917.664c-121.376 0-220.128-98.752-220.128-220.16 0-121.376 98.752-220.128 220.128-220.128 121.408 0 220.16 98.752 220.16 220.128C933.664 818.912 834.912 917.664 713.504 917.664zM713.504 509.376c-103.712 0-188.128 84.416-188.128 188.128 0 103.744 84.416 188.16 188.128 188.16 103.744 0 188.16-84.416 188.16-188.16C901.664 593.792 817.248 509.376 713.504 509.376z" p-id="1291"></path></svg>