<?xml version="1.0" standalone="no"?><!DOCTYPE svg PUBLIC "-//W3C//DTD SVG 1.1//EN" "http://www.w3.org/Graphics/SVG/1.1/DTD/svg11.dtd"><svg t="1575966443036" class="icon" viewBox="0 0 1024 1024" version="1.1" xmlns="http://www.w3.org/2000/svg" p-id="114936" xmlns:xlink="http://www.w3.org/1999/xlink" width="200" height="200"><defs><style type="text/css"></style></defs><path d="M372.382166 63.995037A68.825693 68.825693 0 0 1 442.191083 0.009832h139.617834a68.825693 68.825693 0 0 1 69.808917 63.985205v895.944126a68.825693 68.825693 0 0 1-69.808917 63.985204H442.191083a68.825693 68.825693 0 0 1-69.808917-63.985204z" fill="#FF9D34" p-id="114937"></path><path d="M744.7216 535.26195a71.548467 71.548467 0 0 1 69.808917-69.808917h139.617834a71.548467 71.548467 0 0 1 69.808917 69.808917v418.853501a71.548467 71.548467 0 0 1-69.808917 69.808916h-139.617834a71.548467 71.548467 0 0 1-69.808917-69.733284z" fill="#FF9D34" p-id="114938"></path><path d="M0.042732 256.026282a71.548467 71.548467 0 0 1 69.808917-69.808916h139.617834a71.548467 71.548467 0 0 1 69.808917 69.808916v698.164801a71.548467 71.548467 0 0 1-69.808917 69.808917H69.851649A71.548467 71.548467 0 0 1 0.042732 954.191083V256.026282z" fill="#FF9D34" p-id="114939"></path></svg>