<?xml version="1.0" standalone="no"?><!DOCTYPE svg PUBLIC "-//W3C//DTD SVG 1.1//EN" "http://www.w3.org/Graphics/SVG/1.1/DTD/svg11.dtd"><svg t="1575965429229" class="icon" viewBox="0 0 1024 1024" version="1.1" xmlns="http://www.w3.org/2000/svg" p-id="73080" xmlns:xlink="http://www.w3.org/1999/xlink" width="200" height="200"><defs><style type="text/css"></style></defs><path d="M512 42.666667c258.844444 0 469.333333 210.488889 469.333333 469.333333S770.844444 981.333333 512 981.333333 42.666667 770.844444 42.666667 512 253.155556 42.666667 512 42.666667z" fill="#FF8E16" p-id="73081"></path><path d="M568.888889 625.777778c-9.955556 18.488889-32.711111 28.444444-56.888889 28.444444 0 0-56.888889-5.688889-56.888889-56.888889 0-56.888889 42.666667-96.711111 99.555556-99.555555 21.333333-12.8 28.444444-31.288889 28.444444-56.888889 0-41.244444-29.866667-71.111111-71.111111-71.111111s-71.111111 29.866667-71.111111 71.111111c0 34.133333-36.977778 56.888889-71.111111 56.888889s-56.888889-24.177778-56.888889-58.311111C312.888889 329.955556 402.488889 241.777778 512 241.777778s199.111111 88.177778 199.111111 197.688889c0 91.022222-58.311111 162.133333-142.222222 186.311111z" fill="#FFFFFF" p-id="73082"></path><path d="M512 682.666667c31.288889 0 56.888889 25.6 56.888889 56.888889s-25.6 56.888889-56.888889 56.888888-56.888889-25.6-56.888889-56.888888 25.6-56.888889 56.888889-56.888889z" fill="#FFFFFF" opacity=".6" p-id="73083"></path></svg>