<?xml version="1.0" standalone="no"?><!DOCTYPE svg PUBLIC "-//W3C//DTD SVG 1.1//EN" "http://www.w3.org/Graphics/SVG/1.1/DTD/svg11.dtd"><svg t="1575966445627" class="icon" viewBox="0 0 1024 1024" version="1.1" xmlns="http://www.w3.org/2000/svg" p-id="115070" xmlns:xlink="http://www.w3.org/1999/xlink" width="200" height="200"><defs><style type="text/css"></style></defs><path d="M325.818182 232.727273h-186.181818c-23.272727 0-46.545455 18.618182-46.545455 46.545454v23.272728c0 13.963636 9.309091 23.272727 23.272727 23.272727h791.272728c13.963636 0 23.272727-9.309091 23.272727-23.272727v-23.272728c0-27.927273-18.618182-46.545455-46.545455-46.545454h-186.181818v-93.090909c0-51.2-41.890909-93.090909-93.090909-93.090909h-186.181818c-51.2 0-93.090909 41.890909-93.090909 93.090909v93.090909z m-139.636364 605.090909c0 79.127273 60.509091 139.636364 139.636364 139.636363h372.363636c79.127273 0 139.636364-60.509091 139.636364-139.636363v-372.363637h-651.636364v372.363637z m-93.090909-418.909091c0 27.927273 18.618182 46.545455 46.545455 46.545454h744.727272c23.272727 0 46.545455-18.618182 46.545455-46.545454v-23.272727c0-13.963636-9.309091-23.272727-23.272727-23.272728h-791.272728c-13.963636 0-23.272727 9.309091-23.272727 23.272728v23.272727z" fill="#1DA1F2" p-id="115071"></path><path d="M512 209.454545c32.581818 0 55.854545-27.927273 55.854545-55.854545s-27.927273-55.854545-55.854545-55.854545-55.854545 27.927273-55.854545 55.854545 23.272727 55.854545 55.854545 55.854545z m93.090909 349.09091c0-27.927273 18.618182-46.545455 46.545455-46.545455s46.545455 23.272727 46.545454 46.545455v279.272727c0 27.927273-18.618182 46.545455-46.545454 46.545454s-46.545455-23.272727-46.545455-46.545454v-279.272727z m-279.272727 0c0-27.927273 18.618182-46.545455 46.545454-46.545455s46.545455 23.272727 46.545455 46.545455v279.272727c0 27.927273-18.618182 46.545455-46.545455 46.545454s-46.545455-23.272727-46.545454-46.545454v-279.272727z" fill="#A0D8FD" p-id="115072"></path></svg>