<?xml version="1.0" standalone="no"?><!DOCTYPE svg PUBLIC "-//W3C//DTD SVG 1.1//EN" "http://www.w3.org/Graphics/SVG/1.1/DTD/svg11.dtd"><svg t="1575965710124" class="icon" viewBox="0 0 1024 1024" version="1.1" xmlns="http://www.w3.org/2000/svg" p-id="83747" xmlns:xlink="http://www.w3.org/1999/xlink" width="200" height="200"><defs><style type="text/css"></style></defs><path d="M297.7 827.4c2.8-205.2 2.8-410.3 0-615.5 2.7-12.1 12.6-9.5 20.6-9.5 135.5-0.1 271 0.2 406.5-0.5 15.6-0.1 21.7 5.3 22.2 19.9 0.3 7.7 0.4 15.3 0.4 23v549.7c0 5.1-0.2 10.2 0 15.3 0.5 19.1-5.3 28-27.7 27.8-132.1-1.2-264.2-0.5-396.3-0.8-9.1 0-21.4 5.3-25.7-9.4z" fill="#FEFEFE" p-id="83748"></path><path d="M567.7 916c-0.3 26.4-20.8 45.8-47.5 45.1-25.2-0.7-47-23.1-46.2-47.7 0.8-24.6 23.4-46 48.7-45.9 24.6 0.1 45.3 22.4 45 48.5z" fill="#FBFBFB" p-id="83749"></path><path d="M521.6 107.9c14.5 0 28.9-0.3 43.4 0.1 10.7 0.3 18.2 6.2 19.2 16.7 1 10.8-8.6 15.5-16.7 15.8-30.5 1.2-61.2 1.2-91.7 0.5-8.9-0.2-16.8-5.9-16.4-16.3 0.4-11.1 8.1-16.4 18.8-16.7 14.5-0.3 29-0.1 43.4-0.1z" fill="#FFFFFF" p-id="83750"></path><path d="M280.6 371.3c-3.7-80-9.8-157.7 36.2-228.3C374.3 54.5 481.4 10.6 581.4 36.7c105.4 27.5 180.2 117.7 184.8 224.7 1.4 32.5 1 65.2-1.4 97.5-1 13.2 3.9 12.8 12.6 12.4 19.6-0.9 39.1 0 57.9 6 48.4 15.4 82 61.8 82.1 115.1 0.4 132.7 0.5 265.4 0 398.1-0.3 62.5-50 115-112.3 115.4-187.2 1.1-374.5 1.2-561.7 0-64.5-0.4-115-53.5-115.4-118.4-0.7-133.5-0.6-267 0-400.5 0.3-63.6 51.1-114 114.8-115.7 12.1-0.3 24.3 0 37.8 0z" fill="#1296db" p-id="83751"></path><path d="M524.7 371.3c-43.1 0-86.3-0.9-129.4 0.4-16.8 0.5-20.1-5.3-19.5-20.5 1.2-26 0.1-52.1 0.4-78.1 0.9-81.4 65-145.7 145.5-146.1 80.6-0.4 145.7 63.2 147.4 144.6 0.6 27.7-0.8 55.4 0.4 83 0.6 14.6-4.8 17.2-17.9 17-42.3-0.8-84.6-0.3-126.9-0.3zM516.6 517.7c47.7 0.5 85.8 28.7 98.9 67.9 13 39.1 1.2 82.1-31.7 107-9.8 7.4-12.8 14.4-12.5 25.9 0.7 29.2 0.5 58.5 0.2 87.7-0.5 33.7-19.6 54-49.8 53.5-29.1-0.4-47.3-20.4-47.8-53-0.3-17.1-0.5-34.1 0-51.2 0.9-29.7-0.1-54.8-26.9-78.8-28.9-26-29.4-65.5-12.4-101.8 17.6-37.4 48.6-54.8 82-57.2z" fill="#FEFEFE" p-id="83752"></path></svg>