<?xml version="1.0" standalone="no"?><!DOCTYPE svg PUBLIC "-//W3C//DTD SVG 1.1//EN" "http://www.w3.org/Graphics/SVG/1.1/DTD/svg11.dtd"><svg t="1575965424721" class="icon" viewBox="0 0 1024 1024" version="1.1" xmlns="http://www.w3.org/2000/svg" p-id="72826" xmlns:xlink="http://www.w3.org/1999/xlink" width="200" height="200"><defs><style type="text/css"></style></defs><path d="M370.455615 33.755238l-17.08352 14.086412-49.152585 77.92483S241.879646 253.143605 241.879646 257.339558s-25.475425 136.068742-25.475426 142.962092 2.997109 79.423384 0 101.9017 59.942177 158.547058 68.034371 169.936072a225.982007 225.982007 0 0 0 140.264694 50.95085c77.625119 4.195952 269.739796-56.645357 288.621582-77.92483s89.913265-123.181173 93.210085-149.855442a213.693861 213.693861 0 0 0 7.193061-124.380017 965.96818 965.96818 0 0 0-45.256344-158.547058 742.983282 742.983282 0 0 0-52.449404-119.884354L687.849442 60.129796l-39.561837-12.587857-46.754898-22.178606h-53.947959L471.158472 9.778367l-59.942177 11.389014z" fill="#FFFFFF" p-id="72827"></path><path d="M797.543625 905.014779h-204.103112v-54.24767a432.482806 432.482806 0 0 0 359.653061-421.693214 428.586565 428.586565 0 0 0-265.244132-393.220681 449.566327 449.566327 0 0 0-351.860579 0A428.586565 428.586565 0 0 0 70.744731 429.073895a432.482806 432.482806 0 0 0 359.653061 421.693214v54.24767H226.29468a40.76068 40.76068 0 0 0-40.760681 39.861548v79.123673h652.770307v-79.123673a40.460969 40.460969 0 0 0-40.760681-39.861548zM659.376908 67.622568a219.088656 219.088656 0 0 1-147.457756 56.645357A218.489235 218.489235 0 0 1 364.461397 67.622568a404.010272 404.010272 0 0 1 294.915511 0zM295.228183 429.073895a213.693861 213.693861 0 0 1 216.690969-209.79762 213.993571 213.993571 0 0 1 216.69097 209.79762 213.693861 213.693861 0 0 1-216.69097 209.797619 213.39415 213.39415 0 0 1-216.690969-209.797619z m331.480238 0a113.290714 113.290714 0 0 0-114.789269-111.492449 116.887245 116.887245 0 0 0-59.942176 16.484098 53.048827 53.048827 0 0 1 16.783809-2.697398 56.645357 56.645357 0 1 1-58.143911 56.645357 52.149694 52.149694 0 0 1 2.997108-16.783809 107.296497 107.296497 0 0 0-17.08352 57.844201 114.789269 114.789269 0 0 0 229.578537 0z" fill="#FF4438" p-id="72828"></path></svg>