<svg t="1585543311954" class="icon" viewBox="0 0 1024 1024" version="1.1" xmlns="http://www.w3.org/2000/svg" p-id="12380" width="15" height="15"><path d="M960 0h-640C284.672 0 256 28.672 256 64V256H64C28.672 256 0 284.672 0 320v640c0 35.328 28.672 64 64 64h640c35.328 0 64-28.672 64-64V768h192c35.328 0 64-28.672 64-64v-640C1024 28.672 995.328 0 960 0zM640 896H128V384h512v512z m256-256h-128V320c0-35.328-28.672-64-64-64H384V128h512v512z" p-id="12381" data-spm-anchor-id="a313x.7781069.0.i13" class="selected" fill="#ffffff"></path></svg>